HIERARCHY
ROOT Hips
{
  OFFSET -1.56614 0.00 -1.85809
  CHANNELS 6 Xposition Yposition Zposition Zrotation Xrotation Yrotation
  JOINT LHipJoint
  {
    OFFSET 0 0 0
    CHANNELS 3 Zrotation Xrotation Yrotation
    JOINT LeftUpLeg
    {
      OFFSET 1.8 -1.4 0.085
      CHANNELS 3 Zrotation Xrotation Yrotation
      JOINT LeftLeg
      {
        OFFSET 2.215 -6 0
        CHANNELS 3 Zrotation Xrotation Yrotation
        JOINT LeftFoot
        {
          OFFSET 2.5 -6.9 0
          CHANNELS 3 Zrotation Xrotation Yrotation
          JOINT LeftToeBase
          {
            OFFSET 0.2 -0.5 1.95
            CHANNELS 3 Zrotation Xrotation Yrotation
            End Site
            {
              OFFSET 0 0 1
            }
          }
        }
      }
    }
  }
  JOINT RHipJoint
  {
    OFFSET 0 0 0
    CHANNELS 3 Zrotation Xrotation Yrotation
    JOINT RightUpLeg
    {
      OFFSET -1.8 -1.4 0.085
      CHANNELS 3 Zrotation Xrotation Yrotation
      JOINT RightLeg
      {
        OFFSET -2.215 -6 0
        CHANNELS 3 Zrotation Xrotation Yrotation
        JOINT RightFoot
        {
          OFFSET -2.5 -6.9 0
          CHANNELS 3 Zrotation Xrotation Yrotation
          JOINT RightToeBase
          {
            OFFSET -0.2 -0.5 1.95
            CHANNELS 3 Zrotation Xrotation Yrotation
            End Site
            {
              OFFSET 0 0 1
            }
          }
        }
      }
    }
  }
  JOINT LowerBack
  {
    OFFSET 0 0 0
    CHANNELS 3 Zrotation Xrotation Yrotation
    JOINT Spine
    {
      OFFSET -0.087 1.94 -0.2889
      CHANNELS 3 Zrotation Xrotation Yrotation
      JOINT Spine1
      {
        OFFSET 0 1.95 0.06
        CHANNELS 3 Zrotation Xrotation Yrotation
        JOINT Neck
        {
          OFFSET 0 0 0
          CHANNELS 3 Zrotation Xrotation Yrotation
          JOINT Neck1
          {
            OFFSET 0 1.6 0.34
            CHANNELS 3 Zrotation Xrotation Yrotation
            JOINT Head
            {
              OFFSET 0 1.667 -0.24
              CHANNELS 3 Zrotation Xrotation Yrotation
              End Site
              {
                OFFSET 0 1.686 -0.12
              }
            }
          }
        }
        JOINT LeftShoulder
        {
          OFFSET 0 0 0
          CHANNELS 3 Zrotation Xrotation Yrotation
          JOINT LeftArm
          {
            OFFSET 2.7 1.55 -0.73
            CHANNELS 3 Zrotation Xrotation Yrotation
            JOINT LeftForeArm
            {
              OFFSET 5.45 0 0
              CHANNELS 3 Zrotation Xrotation Yrotation
              JOINT LeftHand
              {
                OFFSET 3.45 0 0
                CHANNELS 3 Zrotation Xrotation Yrotation
                JOINT LeftFingerBase
                {
                  OFFSET 0 0 0
                  CHANNELS 3 Zrotation Xrotation Yrotation
                  JOINT LeftHandIndex1
                  {
                    OFFSET 0.75 0 0
                    CHANNELS 3 Zrotation Xrotation Yrotation
                    End Site
                    {
                      OFFSET 0.6 0 0
                    }
                  }
                }
                JOINT LThumb
                {
                  OFFSET 0 0 0
                  CHANNELS 3 Zrotation Xrotation Yrotation
                  End Site
                  {
                    OFFSET 0.59 0 0.59
                  }
                }
              }
            }
          }
        }
        JOINT RightShoulder
        {
          OFFSET 0 0 0
          CHANNELS 3 Zrotation Xrotation Yrotation
          JOINT RightArm
          {
            OFFSET -2.7 1.55 -0.73
            CHANNELS 3 Zrotation Xrotation Yrotation
            JOINT RightForeArm
            {
              OFFSET -5.45 0 0
              CHANNELS 3 Zrotation Xrotation Yrotation
              JOINT RightHand
              {
                OFFSET -3.45 0 0
                CHANNELS 3 Zrotation Xrotation Yrotation
                JOINT RightFingerBase
                {
                  OFFSET 0 0 0
                  CHANNELS 3 Zrotation Xrotation Yrotation
                  JOINT RightHandIndex1
                  {
                    OFFSET -0.75 0 0
                    CHANNELS 3 Zrotation Xrotation Yrotation
                    End Site
                    {
                      OFFSET -0.6 0 0
                    }
                  }
                }
                JOINT RThumb
                {
                  OFFSET 0 0 0
                  CHANNELS 3 Zrotation Xrotation Yrotation
                  End Site
                  {
                    OFFSET -0.59 0 0.59
                  }
                }
              }
            }
          }
        }
      }
    }
  }
}
MOTION
Frames:	10
Frame Time:	0.00833333
0.178917 18.3019 -2.49081 0.00260924 -0.00519552 0.00143961 6.44984e-019 1.55301e-018 3.88251e-019 -18.9022 -4.46533 2.35255 0.905871 6.76067 3.31772 -1.30137 -2.21178 -5.78349 1.1055e-015 2.00661e-013 3.42079e-014 6.44984e-019 1.55301e-018 3.88251e-019 22.4369 -5.99713 0.997634 -1.64285 7.62691 -15.3269 2.50079 -1.0117 14.5545 -4.05161e-016 1.55301e-018 -3.88251e-019 6.44984e-019 1.55301e-018 3.88251e-019 -0.00769738 -0.000947443 0.000608298 0.0118668 0.00280858 -0.00191376 -9.81309e-009 -16 1.99283e-009 3.11166e-009 21 -3.91024e-010 -0.00258609 10.9988 -0.00313849 0.336978 0.00261429 3.45891 -22.5926 -44.0841 -27.7924 -3.57496 49.2499 -0.00519473 2.94428 -1.75511 0.392185 2.774e-008 -1.28467e-007 1.68385e-006 1.49089e-016 1.49089e-016 -3.18055e-015 7.45443e-017 -1.98785e-016 -6.36111e-015 -0.346501 0.0309388 -3.0648 67.6453 -45.9976 73.2883 -6.34287 -1.65593 0.585399 -4.78431 -0.811746 -7.52581 1.19632e-006 8.32637e-007 -1.37962e-006 -0 0 7.95139e-016 -0 0 1.59028e-015 
0.178145 18.3018 -2.49021 0.0026098 -0.00519552 0.00754784 -4.1991e-020 0 -3.10601e-018 -18.8997 -4.46535 2.34635 0.910164 6.77365 3.30526 -1.32597 -2.21198 -5.77108 3.39846e-015 2.00661e-013 3.42077e-014 -4.1991e-020 0 -3.10601e-018 22.4399 -5.97811 0.997599 -1.65463 7.60989 -15.317 2.54874 -1.02171 14.5461 -5.77177e-015 -3.10601e-018 7.76503e-019 -4.1991e-020 0 -3.10601e-018 -0.0399464 -0.00371299 0.000608298 0.0623835 0.0133028 -0.00986651 -9.81309e-009 -16 1.99283e-009 3.11166e-009 21 -3.91024e-010 -0.0151559 10.992 -0.0166 0.336978 0.00261428 3.46017 -22.564 -44.069 -27.7448 -3.59722 49.2268 -0.0051923 2.95332 -1.7551 0.405459 2.774e-008 -1.28467e-007 1.68385e-006 -3.47873e-016 -1.49089e-016 -3.18055e-015 -1.49089e-016 9.93923e-017 -0 -0.346493 0.0309384 -3.07978 67.6174 -46.0137 73.2814 -6.33774 -1.57925 0.569071 -4.75196 -0.819046 -7.58262 1.19632e-006 8.32637e-007 -1.37962e-006 6.36111e-015 3.18055e-015 -7.95139e-016 -2.20695e-032 -1.59028e-015 -7.95139e-016 
0.17737 18.3016 -2.4896 0.00261036 -0.00519552 0.013712 -7.20957e-019 1.55301e-018 -3.10601e-018 -18.8973 -4.46537 2.33997 0.914591 6.78671 3.29297 -1.35112 -2.21196 -5.7587 5.07304e-015 2.00661e-013 3.42073e-014 -7.20957e-019 1.55301e-018 -3.10601e-018 22.443 -5.95859 0.997564 -1.66671 7.59219 -15.3069 2.59817 -1.03177 14.5375 2.00339e-015 -6.21202e-018 -3.10601e-018 -7.20957e-019 1.55301e-018 -3.10601e-018 -0.0724297 -0.00631467 0.000608298 0.113391 0.0236786 -0.0178669 -9.81309e-009 -16 1.99283e-009 3.11166e-009 21 -3.91024e-010 -0.0280848 10.985 -0.0302061 0.336978 0.00261428 3.46143 -22.5353 -44.0536 -27.6968 -3.61971 49.2034 -0.00518984 2.96252 -1.7551 0.418604 2.774e-008 -1.28467e-007 1.68385e-006 1.98785e-016 9.93923e-017 -9.54166e-015 -2.48481e-017 9.93923e-017 3.18055e-015 -0.346485 0.030938 -3.09495 67.5891 -46.0299 73.2747 -6.33255 -1.50092 0.552387 -4.71905 -0.82649 -7.64062 1.19632e-006 8.32637e-007 -1.37962e-006 6.36111e-015 1.59028e-015 -7.95139e-016 -0 -1.59028e-015 -0 
0.176626 18.3014 -2.48898 0.00261086 -0.00519552 0.0192606 -6.24842e-019 -7.76503e-019 -0 -18.8946 -4.46538 2.33557 0.917612 6.79905 3.27881 -1.37015 -2.2143 -5.74607 -4.08455e-015 2.00664e-013 3.42088e-014 -6.24842e-019 -7.76503e-019 -0 22.4463 -5.94466 0.997539 -1.67547 7.58197 -15.2999 2.63128 -1.04129 14.5304 -9.26965e-016 -6.21202e-018 -1.55301e-018 -6.24842e-019 -7.76503e-019 -0 -0.102335 -0.010719 0.000608298 0.159037 0.0353569 -0.0253433 -9.81309e-009 -16 1.99283e-009 3.11166e-009 21 -3.91025e-010 -0.037101 10.9811 -0.0422142 0.336978 0.00261428 3.46276 -22.5078 -44.0417 -27.6533 -3.63965 49.1832 -0.00518772 2.96995 -1.7551 0.433178 2.774e-008 -1.28467e-007 1.68385e-006 -1.98785e-016 1.49089e-016 -9.54166e-015 7.45443e-017 0 -0 -0.346477 0.0309376 -3.10801 67.5639 -46.0455 73.2649 -6.32735 -1.4407 0.539643 -4.69252 -0.832305 -7.68552 1.19632e-006 8.32637e-007 -1.37962e-006 -3.18055e-015 1.59028e-015 -7.95139e-016 -3.18055e-015 0 -0 
0.175947 18.3012 -2.48834 0.00239483 -0.00554507 0.0235128 -1.59244e-019 1.55301e-018 -6.21202e-018 -18.8912 -4.46472 2.33549 0.917589 6.81017 3.26064 -1.37642 -2.22158 -5.73293 2.36674e-015 2.00658e-013 3.42079e-014 -1.59244e-019 1.55301e-018 -6.21202e-018 22.4505 -5.94256 0.998182 -1.67712 7.58792 -15.299 2.62963 -1.04991 14.5261 1.63744e-015 0 3.10601e-018 -1.59244e-019 1.55301e-018 -6.21202e-018 -0.126739 -0.0187517 0.000115768 0.193461 0.0497346 -0.0316926 -5.5981e-005 -16 3.30592e-005 -7.24134e-005 21 5.19352e-005 -0.0377269 10.9835 -0.050983 0.336978 0.00261427 3.46427 -22.4829 -44.0372 -27.6193 -3.65428 49.1696 -0.0051863 2.9737 -1.75509 0.450955 2.774e-008 -1.28467e-007 1.68385e-006 -1.2424e-016 0 -9.54166e-015 -9.93923e-017 0 6.36111e-015 -0.346473 0.0309373 -3.11667 67.5448 -46.0597 73.2488 -6.32221 -1.41896 0.535264 -4.67946 -0.834661 -7.70253 1.19632e-006 8.32637e-007 -1.37962e-006 3.18055e-015 3.18055e-015 7.95139e-016 4.41391e-032 -3.18055e-015 7.95139e-016 
0.175357 18.3011 -2.48774 0.000541718 -0.00874889 0.0260281 1.47869e-019 0 -0 -18.8845 -4.46276 2.34329 0.912335 6.82385 3.23584 -1.36736 -2.2352 -5.71963 2.09575e-015 2.00661e-013 3.42061e-014 1.47869e-019 0 -0 22.4571 -5.9567 1.00093 -1.66726 7.62207 -15.2984 2.57561 -1.0609 14.5164 1.49516e-015 0 -4.65902e-018 1.47869e-019 0 -0 -0.142694 -0.0291298 -0.00143946 0.213912 0.0670693 -0.0361751 -0.00102617 -16 0.000606049 -0.00132764 21 0.000952141 -0.0249533 10.9945 -0.0572827 0.336978 0.00261427 3.46583 -22.4611 -44.0424 -27.5987 -3.66288 49.1654 -0.00518586 2.9737 -1.75509 0.475847 2.774e-008 -1.28467e-007 1.68385e-006 7.45443e-017 -4.96962e-017 -9.54166e-015 -7.45443e-017 9.93923e-017 -3.18055e-015 -0.346471 0.0309372 -3.12015 67.5341 -46.0735 73.2266 -6.31799 -1.45451 0.543159 -4.68532 -0.83187 -7.67746 1.19632e-006 8.32637e-007 -1.37962e-006 3.18055e-015 1.59028e-015 7.95139e-016 3.18055e-015 0 7.95139e-016 
0.174816 18.301 -2.48713 -0.00146935 -0.0122416 0.0275648 -3.03321e-019 -1.55301e-018 6.21202e-018 -18.877 -4.46092 2.35455 0.904686 6.83699 3.20789 -1.34882 -2.25253 -5.70599 5.20957e-015 2.00662e-013 3.42065e-014 -3.03321e-019 -1.55301e-018 6.21202e-018 22.4643 -5.9798 1.0037 -1.65183 7.66902 -15.3016 2.49482 -1.07153 14.508 3.40219e-016 -1.94126e-019 -1.55301e-018 -3.03321e-019 -1.55301e-018 6.21202e-018 -0.154398 -0.0420154 -0.0029283 0.22599 0.0863809 -0.0397741 -0.00211577 -16 0.00124956 -0.00273735 21 0.00196314 -0.00564478 11.0103 -0.0613099 0.336978 0.00261426 3.4675 -22.4412 -44.0532 -27.5852 -3.66757 49.1662 -0.00518595 2.97104 -1.75508 0.503416 2.774e-008 -1.28467e-007 1.68385e-006 4.22417e-016 2.98177e-016 -9.54166e-015 2.48481e-016 2.98177e-016 -0 -0.346471 0.0309372 -3.12039 67.528 -46.0864 73.1999 -6.31388 -1.51964 0.557467 -4.70143 -0.82642 -7.6309 1.19632e-006 8.32637e-007 -1.37962e-006 3.18055e-015 3.18055e-015 -0 8.82781e-032 -3.18055e-015 1.59028e-015 
0.174274 18.3009 -2.48639 -0.00174196 -0.0125565 0.0291212 3.40478e-019 0 -1.2424e-017 -18.8734 -4.45777 2.36244 0.898891 6.84361 3.18195 -1.32769 -2.27023 -5.69156 3.78655e-016 2.00661e-013 3.4208e-014 3.40478e-019 0 -1.2424e-017 22.4697 -6.00209 1.00626 -1.63961 7.70554 -15.317 2.42364 -1.0766 14.5133 -3.26097e-015 6.21202e-018 -0 3.40478e-019 0 -1.2424e-017 -0.167874 -0.0587815 -0.00514736 0.236578 0.106683 -0.0439478 -0.00189187 -16 0.00111733 -0.00244768 21 0.00175541 0.010166 11.026 -0.0624606 0.336978 0.00261426 3.46943 -22.4214 -44.0643 -27.5705 -3.67066 49.1663 -0.00518596 2.96662 -1.75507 0.526514 2.774e-008 -1.28467e-007 1.68385e-006 2.48481e-016 3.97569e-016 -9.54166e-015 -2.23633e-016 0 -3.18055e-015 -0.346471 0.0309372 -3.11953 67.5218 -46.0974 73.1693 -6.3085 -1.57524 0.569977 -4.716 -0.821826 -7.59214 1.19632e-006 8.32637e-007 -1.37962e-006 -3.18055e-015 0 -1.59028e-015 -2.20695e-032 -1.59028e-015 -7.95139e-016 
0.17367 18.3007 -2.48535 0.00189175 -0.0057543 0.0317599 1.34978e-019 0 -0 -18.8786 -4.45164 2.35981 0.89928 6.83668 3.16302 -1.31053 -2.28488 -5.67553 -3.1283e-016 2.0066e-013 3.4208e-014 1.34978e-019 0 -0 22.4702 -6.0138 1.00847 -1.63959 7.70719 -15.3542 2.39868 -1.07028 14.5462 8.11883e-016 0 -0 1.34978e-019 0 -0 -0.189411 -0.0815931 -0.00898932 0.25247 0.12739 -0.0502446 0.00107768 -16 -0.000644997 0.00139756 21 -0.00100905 0.0124514 11.0369 -0.0599712 0.336978 0.00261425 3.4718 -22.3995 -44.0705 -27.546 -3.67443 49.1599 -0.00518528 2.96111 -1.75452 0.537715 2.774e-008 -1.28467e-007 1.68385e-006 4.22417e-016 3.47873e-016 -3.18055e-015 -1.98785e-016 9.93923e-017 -0 -0.346471 0.0309372 -3.1196 67.5107 -46.1057 73.1356 -6.30049 -1.58266 0.572577 -4.71745 -0.821571 -7.59023 1.19632e-006 8.32637e-007 -1.37962e-006 6.36111e-015 -3.18055e-015 -0 -6.36111e-015 0 7.95139e-016 
0.172837 18.3006 -2.48363 0.0144404 0.0169491 0.0369107 4.83949e-018 9.31803e-018 1.2424e-017 -18.9011 -4.43788 2.33825 0.909169 6.79776 3.15082 -1.29545 -2.29368 -5.65249 8.13339e-016 2.00664e-013 3.4208e-014 4.83949e-018 9.31803e-018 1.2424e-017 22.4618 -6.01044 1.01232 -1.65986 7.64568 -15.4389 2.44024 -1.0412 14.6321 -9.45617e-017 0 3.88251e-019 4.83949e-018 9.31803e-018 1.2424e-017 -0.225731 -0.123207 -0.0162818 0.275326 0.154213 -0.0606918 0.00741821 -16.001 -0.00453776 0.00965765 20.999 -0.00705072 -0.00315031 11.0435 -0.0511282 0.336977 0.00261424 3.47535 -22.3708 -44.0717 -27.5052 -3.67959 49.1435 -0.00518357 2.95146 -1.75142 0.529571 2.774e-008 -1.28467e-007 1.68385e-006 2.73329e-016 2.48481e-016 -3.18055e-015 -2.48481e-016 9.93923e-017 -3.18055e-015 -0.346471 0.0309372 -3.11936 67.4933 -46.11 73.0983 -6.28905 -1.53156 0.563137 -4.70393 -0.826689 -7.63457 1.19632e-006 8.32637e-007 -1.37962e-006 0 0 -7.95139e-016 -0 -1.59028e-015 -0 
